<svg width="559" height="85" viewBox="0 0 559 85" fill="none" xmlns="http://www.w3.org/2000/svg">
<g clip-path="url(#clip0_27_52)">
<path fill-rule="evenodd" clip-rule="evenodd" d="M41.0016 0.0969238L8.6097 8.70662L0 41.0986L11.8794 52.9779L20.4891 20.6065L52.8898 11.988L41.0016 0.0969238ZM84.0001 43.0955L72.1207 31.2161L63.5081 63.5875L31.1103 72.206L42.9985 84.0972L75.3904 75.4875L84.0001 43.0955ZM0.0413838 72.1922L52.8835 19.3501L64.7463 31.2129L11.9042 84.055L0.0413838 72.1922Z" fill="white"/>
<path d="M136.928 20.2209H153.888C162.848 20.2209 168.032 25.4049 168.032 32.3809C168.032 37.0529 165.088 40.8929 161.376 42.1089C165.472 43.0689 169.44 46.8449 169.44 52.7329C169.44 60.1569 163.808 65.5969 155.232 65.5969H136.928V20.2209ZM146.784 38.3969H152.288C155.808 38.3969 158.112 36.5409 158.112 33.4689C158.112 30.5249 156.128 28.6049 152.16 28.6049H146.784V38.3969ZM146.784 57.3409H153.12C157.024 57.3409 159.392 55.2929 159.392 52.0289C159.392 48.8929 157.088 46.7169 153.12 46.7169H146.784V57.3409ZM211.628 65.5969H182.828V20.2209H211.564V29.7569H192.94V38.3969H209.836V47.2929H192.94V55.9969H211.628V65.5969ZM256.941 65.5969L253.677 56.3809H236.141L232.877 65.5969H222.253L239.341 20.2209H251.053L267.949 65.5969H256.941ZM245.037 31.4849L239.469 47.1649H250.477L245.037 31.4849ZM310.121 29.8849H296.105V65.5969H285.993V29.8849H272.041V20.2209H310.121V29.8849ZM332.829 65.5969H322.653V20.2209H351.901V29.8209H332.765V39.4209H349.597V48.6369H332.829V65.5969ZM372.988 42.8769C372.988 52.3489 379.772 56.5729 386.108 56.5729C392.38 56.5729 399.164 52.3489 399.164 42.8769C399.164 33.4049 392.38 29.1169 386.108 29.1169C379.772 29.1169 372.988 33.4049 372.988 42.8769ZM362.492 42.9409C362.492 28.5409 373.308 19.2609 386.108 19.2609C398.844 19.2609 409.66 28.5409 409.66 42.9409C409.66 57.2769 398.844 66.5569 386.108 66.5569C373.308 66.5569 362.492 57.2769 362.492 42.9409ZM445.089 65.5969L436.961 48.7009H433.377V65.5969H423.265V20.2209H441.249C450.209 20.2209 455.969 26.3649 455.969 34.4289C455.969 40.5729 452.577 45.2449 447.009 47.2289L456.225 65.5969H445.089ZM433.377 39.9969H439.329C443.489 39.9969 445.729 37.6929 445.729 34.4929C445.729 31.1009 443.489 28.9889 439.329 28.9889H433.377V39.9969ZM511.46 65.5969H503.268L502.628 60.9889C500.644 63.8689 496.356 66.5569 489.892 66.5569C477.284 66.5569 466.916 57.2769 466.916 42.9409C466.916 28.6689 477.732 19.2609 490.532 19.2609C503.524 19.2609 509.54 26.9409 511.524 33.2769L501.796 36.6689C501.092 33.8529 498.084 28.7329 490.532 28.7329C484.388 28.7329 477.156 32.8289 477.156 42.9409C477.156 52.4129 483.428 57.3409 490.788 57.3409C498.276 57.3409 501.412 52.4769 501.988 49.9169H488.356V41.3409H511.46V65.5969ZM555.178 65.5969H526.378V20.2209H555.114V29.7569H536.49V38.3969H553.386V47.2929H536.49V55.9969H555.178V65.5969Z" fill="white"/>
</g>
<defs>
<clipPath id="clip0_27_52">
<rect width="559" height="84.0002" fill="white" transform="translate(0 0.0969238)"/>
</clipPath>
</defs>
</svg>
