<svg id="visual" viewBox="0 0 900 600" width="900" height="600" xmlns="http://www.w3.org/2000/svg" xmlns:xlink="http://www.w3.org/1999/xlink" version="1.1"><path d="M0 426L30 426.5C60 427 120 428 180 424C240 420 300 411 360 408.5C420 406 480 410 540 426.2C600 442.3 660 470.7 720 480.3C780 490 840 481 870 476.5L900 472L900 601L870 601C840 601 780 601 720 601C660 601 600 601 540 601C480 601 420 601 360 601C300 601 240 601 180 601C120 601 60 601 30 601L0 601Z" fill="#18181b" stroke-linecap="round" stroke-linejoin="miter"></path></svg>