<svg xmlns="http://www.w3.org/2000/svg" width="28" height="28" fill="none" viewBox="0 0 28 28"><g filter="url(#filter0_d_14_53)"><path fill="#fff" fill-opacity=".55" d="M20.6398 7.69935C19.3651 7.13428 17.9981 6.71796 16.5689 6.47952C16.5429 6.47491 16.5169 6.48641 16.5035 6.50942C16.3277 6.81149 16.1329 7.20558 15.9966 7.51533C14.4593 7.29299 12.93 7.29299 11.4243 7.51533C11.2879 7.19869 11.0861 6.81149 10.9095 6.50942C10.8961 6.48718 10.8701 6.47568 10.844 6.47952C9.41558 6.7172 8.04862 7.13352 6.7731 7.69935C6.76205 7.70395 6.75259 7.71162 6.74631 7.72158C4.15348 11.4639 3.44319 15.1142 3.79163 18.7193C3.79321 18.7369 3.80346 18.7538 3.81765 18.7645C5.52833 19.9782 7.18541 20.715 8.81172 21.2034C8.83775 21.2111 8.86532 21.2019 8.88189 21.1812C9.26659 20.6736 9.60952 20.1385 9.90355 19.5757C9.9209 19.5427 9.90434 19.5036 9.86887 19.4906C9.32493 19.2912 8.80698 19.0482 8.30876 18.7722C8.26935 18.7499 8.2662 18.6955 8.30245 18.6694C8.40729 18.5935 8.51217 18.5145 8.61228 18.4348C8.63039 18.4203 8.65563 18.4172 8.67693 18.4264C11.9501 19.8701 15.4936 19.8701 18.7281 18.4264C18.7494 18.4164 18.7746 18.4195 18.7935 18.434C18.8937 18.5138 18.9985 18.5935 19.1042 18.6694C19.1404 18.6955 19.1381 18.7499 19.0986 18.7722C18.6004 19.0535 18.0825 19.2912 17.5377 19.4898C17.5023 19.5029 17.4865 19.5427 17.5039 19.5757C17.8042 20.1377 18.1471 20.6728 18.5247 21.1804C18.5405 21.2019 18.5689 21.2111 18.5949 21.2034C20.2291 20.715 21.8862 19.9782 23.5968 18.7645C23.6118 18.7538 23.6213 18.7377 23.6229 18.72C24.0399 14.5522 22.9244 10.9318 20.6658 7.72235C20.6603 7.71162 20.6509 7.70395 20.6398 7.69935ZM10.3923 16.5242C9.4069 16.5242 8.59493 15.6501 8.59493 14.5767C8.59493 13.5033 9.39115 12.6293 10.3923 12.6293C11.4014 12.6293 12.2055 13.511 12.1897 14.5767C12.1897 15.6501 11.3935 16.5242 10.3923 16.5242ZM17.0379 16.5242C16.0525 16.5242 15.2406 15.6501 15.2406 14.5767C15.2406 13.5033 16.0368 12.6293 17.0379 12.6293C18.047 12.6293 18.8511 13.511 18.8354 14.5767C18.8354 15.6501 18.047 16.5242 17.0379 16.5242Z"/></g><defs><filter id="filter0_d_14_53" width="21" height="15.727" x="3.709" y="6.479" color-interpolation-filters="sRGB" filterUnits="userSpaceOnUse"><feFlood flood-opacity="0" result="BackgroundImageFix"/><feColorMatrix in="SourceAlpha" result="hardAlpha" type="matrix" values="0 0 0 0 0 0 0 0 0 0 0 0 0 0 0 0 0 0 127 0"/><feOffset dx="1" dy="1"/><feComposite in2="hardAlpha" operator="out"/><feColorMatrix type="matrix" values="0 0 0 0 0 0 0 0 0 0 0 0 0 0 0 0 0 0 0.1 0"/><feBlend in2="BackgroundImageFix" mode="normal" result="effect1_dropShadow_14_53"/><feBlend in="SourceGraphic" in2="effect1_dropShadow_14_53" mode="normal" result="shape"/></filter></defs></svg>