<svg xmlns="http://www.w3.org/2000/svg" width="28" height="28" fill="none" viewBox="0 0 28 28"><g filter="url(#filter0_d_14_46)"><mask id="mask0_14_46" style="mask-type:luminance" width="20" height="20" x="4" y="4" maskUnits="userSpaceOnUse"><path fill="#fff" d="M4 4H24V24H4V4Z"/></mask><g mask="url(#mask0_14_46)"><path fill="#fff" fill-opacity=".55" fill-rule="evenodd" d="M14 4C19.525 4 24 8.475 24 14C24 18.425 21.1375 22.1625 17.1625 23.4875C16.6625 23.575 16.475 23.275 16.475 23.0125C16.475 22.775 16.4875 21.9875 16.4875 21.15C19 21.6125 19.65 20.5375 19.85 19.975C19.9625 19.6875 20.45 18.8 20.875 18.5625C21.225 18.375 21.725 17.9125 20.8875 17.9C20.1 17.8875 19.5375 18.625 19.35 18.925C18.45 20.4375 17.0125 20.0125 16.4375 19.75C16.35 19.1 16.0875 18.6625 15.8 18.4125C18.025 18.1625 20.35 17.3 20.35 13.475C20.35 12.3875 19.9625 11.4875 19.325 10.7875C19.425 10.5375 19.775 9.5125 19.225 8.1375C19.225 8.1375 18.3875 7.875 16.475 9.1625C15.675 8.9375 14.825 8.825 13.975 8.825C13.125 8.825 12.275 8.9375 11.475 9.1625C9.5625 7.8625 8.725 8.1375 8.725 8.1375C8.175 9.5125 8.525 10.5375 8.625 10.7875C7.9875 11.4875 7.6 12.375 7.6 13.475C7.6 17.3125 9.9375 18.1625 12.1625 18.4125C11.8 18.725 11.4875 19.325 11.4875 20.2625C11.4875 21.6 11.5 22.675 11.5 23.0125C11.5 23.275 11.3125 23.5875 10.8125 23.4875C6.8625 22.1625 4 18.4125 4 14C4 8.475 8.475 4 14 4Z" clip-rule="evenodd"/></g></g><defs><filter id="filter0_d_14_46" width="21" height="20.507" x="4" y="4" color-interpolation-filters="sRGB" filterUnits="userSpaceOnUse"><feFlood flood-opacity="0" result="BackgroundImageFix"/><feColorMatrix in="SourceAlpha" result="hardAlpha" type="matrix" values="0 0 0 0 0 0 0 0 0 0 0 0 0 0 0 0 0 0 127 0"/><feOffset dx="1" dy="1"/><feComposite in2="hardAlpha" operator="out"/><feColorMatrix type="matrix" values="0 0 0 0 0 0 0 0 0 0 0 0 0 0 0 0 0 0 0.1 0"/><feBlend in2="BackgroundImageFix" mode="normal" result="effect1_dropShadow_14_46"/><feBlend in="SourceGraphic" in2="effect1_dropShadow_14_46" mode="normal" result="shape"/></filter></defs></svg>