<svg width="80" height="80" viewBox="0 0 80 80" fill="none" xmlns="http://www.w3.org/2000/svg">
<rect width="80" height="80" fill="black"/>
<g opacity="0.5">
<path fill-rule="evenodd" clip-rule="evenodd" d="M22.5 30C22.5 29.0054 22.8951 28.0516 23.5983 27.3483C24.3016 26.6451 25.2554 26.25 26.25 26.25H53.75C54.7446 26.25 55.6984 26.6451 56.4016 27.3483C57.1049 28.0516 57.5 29.0054 57.5 30V50C57.5 50.9946 57.1049 51.9484 56.4016 52.6516C55.6984 53.3549 54.7446 53.75 53.75 53.75H26.25C25.2554 53.75 24.3016 53.3549 23.5983 52.6516C22.8951 51.9484 22.5 50.9946 22.5 50V30ZM25 46.7667V50C25 50.69 25.56 51.25 26.25 51.25H53.75C54.0815 51.25 54.3995 51.1183 54.6339 50.8839C54.8683 50.6495 55 50.3315 55 50V46.7667L50.5167 42.285C50.0479 41.8168 49.4125 41.5539 48.75 41.5539C48.0875 41.5539 47.4521 41.8168 46.9833 42.285L45.5167 43.75L47.1333 45.3667C47.2561 45.4811 47.3546 45.6191 47.423 45.7724C47.4913 45.9258 47.528 46.0913 47.531 46.2591C47.5339 46.427 47.5031 46.5937 47.4402 46.7493C47.3773 46.905 47.2838 47.0464 47.1651 47.1651C47.0464 47.2838 46.905 47.3773 46.7493 47.4402C46.5937 47.5031 46.427 47.5339 46.2591 47.531C46.0913 47.528 45.9258 47.4913 45.7724 47.423C45.6191 47.3546 45.4811 47.2561 45.3667 47.1333L36.7667 38.535C36.2979 38.0668 35.6625 37.8039 35 37.8039C34.3375 37.8039 33.7021 38.0668 33.2333 38.535L25 46.7683V46.7667ZM41.875 33.75C41.875 33.2527 42.0725 32.7758 42.4242 32.4242C42.7758 32.0725 43.2527 31.875 43.75 31.875C44.2473 31.875 44.7242 32.0725 45.0758 32.4242C45.4275 32.7758 45.625 33.2527 45.625 33.75C45.625 34.2473 45.4275 34.7242 45.0758 35.0758C44.7242 35.4275 44.2473 35.625 43.75 35.625C43.2527 35.625 42.7758 35.4275 42.4242 35.0758C42.0725 34.7242 41.875 34.2473 41.875 33.75Z" fill="white"/>
</g>
</svg>
